<svg version="1.2" xmlns="http://www.w3.org/2000/svg" viewBox="0 0 4488 1632" width="4488" height="1632"><style>.a{fill:#8002ff}.b{fill:none;stroke:#aa73ff;stroke-width:20}.c{fill:#fff}</style><path class="a" d="m1290 250h-948c-39.8 0-72 32.2-72 72v948c0 39.8 32.2 72 72 72h948c39.8 0 72-32.2 72-72v-948c0-39.8-32.2-72-72-72z"/><path class="b" d="m1290 260h-948c-34.2 0-62 27.8-62 62v948c0 34.2 27.8 62 62 62h948c34.2 0 62-27.8 62-62v-948c0-34.2-27.8-62-62-62z"/><path class="c" d="m530.6 472.3c0-21.7-17.6-39.3-39.3-39.3-21.7 0-39.3 17.6-39.3 39.3v3.2c0 21.7 17.6 39.3 39.3 39.3 21.7 0 39.3-17.6 39.3-39.3z"/><path class="c" d="m530.6 608.6c0-21.7-17.6-39.3-39.3-39.3-21.7 0-39.3 17.6-39.3 39.3v3.2c0 21.7 17.6 39.3 39.3 39.3 21.7 0 39.3-17.6 39.3-39.3z"/><path class="c" d="m530.6 735.8c0-21.7-17.6-39.3-39.3-39.3-21.7 0-39.3 17.6-39.3 39.3v382.6c0 21.7 17.6 39.3 39.3 39.3 21.7 0 39.3-17.6 39.3-39.3z"/><path class="c" d="m495.1 1078.2c-22.6 0-40.9 18.3-40.9 40.9 0 22.6 18.3 40.9 40.9 40.9h361.4c22.6 0 40.9-18.3 40.9-40.9 0-22.6-18.3-40.9-40.9-40.9z"/><path class="c" d="m772.3 433c-22.5 0-40.9 18.3-40.9 40.9 0 22.6 18.4 40.9 40.9 40.9h361.4c22.6 0 40.9-18.3 40.9-40.9 0-22.6-18.3-40.9-40.9-40.9z"/><path class="c" d="m1174.6 472.3c0-21.7-17.6-39.3-39.3-39.3-21.7 0-39.3 17.6-39.3 39.3v382.6c0 21.7 17.6 39.3 39.3 39.3 21.7 0 39.3-17.6 39.3-39.3z"/><path class="c" d="m714 674.5c0-21.7-17.6-39.3-39.3-39.3-21.7 0-39.3 17.6-39.3 39.3v262.2c0 21.7 17.6 39.3 39.3 39.3 21.7 0 39.3-17.6 39.3-39.3z"/><path class="c" d="m993.4 674.5c0-21.7-17.6-39.3-39.3-39.3-21.7 0-39.3 17.6-39.3 39.3v262.2c0 21.7 17.6 39.3 39.3 39.3 21.7 0 39.3-17.6 39.3-39.3z"/><path class="c" d="m676.3 635.2c-22.6 0-40.9 18.3-40.9 40.9 0 22.6 18.3 40.9 40.9 40.9h276.2c22.6 0 40.9-18.3 40.9-40.9 0-22.6-18.3-40.9-40.9-40.9z"/><path class="c" d="m676.3 894.2c-22.6 0-40.9 18.3-40.9 40.9 0 22.6 18.3 40.9 40.9 40.9h276.2c22.6 0 40.9-18.3 40.9-40.9 0-22.6-18.3-40.9-40.9-40.9z"/><path class="c" d="m674.7 472.3c0-21.7-17.6-39.3-39.3-39.3-21.7 0-39.3 17.6-39.3 39.3v3.2c0 21.7 17.6 39.3 39.3 39.3 21.7 0 39.3-17.6 39.3-39.3z"/><path class="c" d="m1179 985.7c0-21.7-17.6-39.3-39.3-39.3-21.7 0-39.3 17.6-39.3 39.3v3.2c0 21.7 17.6 39.3 39.3 39.3 21.7 0 39.3-17.6 39.3-39.3z"/><path class="c" d="m1179 1117.5c0-21.7-17.6-39.3-39.3-39.3-21.7 0-39.3 17.6-39.3 39.3v3.2c0 21.7 17.6 39.3 39.3 39.3 21.7 0 39.3-17.6 39.3-39.3z"/><path class="c" d="m1045.8 1117.5c0-21.7-17.6-39.3-39.3-39.3-21.7 0-39.3 17.6-39.3 39.3v3.2c0 21.7 17.6 39.3 39.3 39.3 21.7 0 39.3-17.6 39.3-39.3z"/></svg>